<?xml version="1.0" standalone="no"?>
<!DOCTYPE svg PUBLIC "-//W3C//DTD SVG 20010904//EN"
 "http://www.w3.org/TR/2001/REC-SVG-20010904/DTD/svg10.dtd">
<svg version="1.0" xmlns="http://www.w3.org/2000/svg"
 width="2000.000000pt" height="1500.000000pt" viewBox="0 0 2000.000000 1500.000000"
 preserveAspectRatio="xMidYMid meet">

<g transform="translate(0.000000,1500.000000) scale(0.100000,-0.100000)"
fill="#000000" stroke="none">
<path d="M8311 9387 c-43 -52 -41 17 -41 -1885 l0 -1798 23 -44 c41 -82 107
-56 127 49 14 74 14 3518 0 3592 -15 80 -74 127 -109 86z"/>
<path d="M4142 9377 c-12 -7 -28 -22 -36 -32 -7 -11 -230 -833 -496 -1827
-449 -1681 -482 -1809 -470 -1838 27 -64 -108 -60 1879 -60 l1811 0 30 28 c30
26 50 97 510 1821 264 986 480 1810 480 1830 0 27 -7 44 -26 62 l-26 24 -1816
2 c-1445 2 -1822 0 -1840 -10z m529 -266 c39 -39 38 -64 -11 -241 -33 -123
-44 -149 -70 -172 l-30 -28 -171 0 c-103 0 -178 4 -191 11 -11 6 -26 26 -34
45 -14 33 -12 44 26 185 42 159 60 202 87 218 10 6 92 11 191 11 l174 0 29
-29z m948 14 c55 -28 56 -59 8 -238 -32 -123 -48 -167 -69 -189 l-26 -28 -181
0 c-180 0 -182 0 -206 25 -38 37 -37 48 16 245 33 124 43 149 69 173 l30 27
166 0 c126 0 172 -4 193 -15z m972 -14 c38 -39 37 -60 -11 -239 -34 -123 -45
-151 -70 -174 l-30 -28 -179 0 -179 0 -26 31 c-14 17 -26 39 -26 50 0 10 20
92 45 181 60 219 45 208 271 208 l176 0 29 -29z m928 18 c31 -11 61 -52 61
-85 0 -29 -82 -318 -96 -340 -25 -37 -58 -44 -220 -44 -174 0 -202 8 -225 61
-14 34 -11 51 52 281 22 81 52 123 92 131 49 10 306 6 336 -4z m-2097 -821 c9
-7 136 -177 282 -377 289 -396 290 -397 247 -467 -22 -37 -927 -759 -976 -780
-43 -18 -69 -18 -104 1 -46 23 -56 63 -37 139 59 238 369 1368 383 1400 33 73
155 123 205 84z m-1527 -1982 c37 -16 55 -42 55 -80 0 -29 -75 -308 -90 -337
-24 -44 -46 -49 -218 -49 -182 0 -210 7 -232 61 -15 34 -17 23 42 238 32 118
60 166 101 174 12 2 86 5 165 6 103 1 152 -3 177 -13z m991 -19 c33 -39 31
-76 -16 -247 -33 -123 -44 -149 -70 -172 l-30 -28 -170 0 -170 0 -31 28 c-23
21 -31 36 -31 62 0 44 77 326 94 347 30 36 69 43 236 40 l164 -2 24 -28z m928
19 c21 -9 37 -25 46 -47 13 -30 11 -45 -24 -178 -43 -168 -61 -211 -96 -228
-34 -17 -329 -18 -365 -1 -27 12 -55 54 -55 82 0 8 18 84 41 168 42 159 65
202 113 211 11 2 85 5 164 6 101 1 152 -3 176 -13z m982 -18 c37 -36 35 -73
-14 -248 -35 -124 -45 -149 -72 -173 l-32 -28 -175 3 -175 3 -24 28 c-15 17
-24 41 -24 60 0 44 73 309 93 341 25 38 65 45 239 43 156 -2 158 -2 184 -29z"/>
<path d="M9800 9209 c-93 -11 -196 -42 -275 -81 -76 -39 -190 -153 -232 -233
-50 -96 -69 -171 -129 -505 -51 -287 -55 -325 -52 -430 3 -98 7 -123 29 -171
54 -116 153 -178 324 -204 277 -42 535 14 681 148 100 90 167 223 189 370 l7
47 -198 0 -199 0 -17 -58 c-34 -115 -112 -172 -237 -172 -124 0 -171 41 -171
149 0 75 81 559 106 634 21 65 95 141 149 156 50 14 135 14 170 1 73 -28 106
-121 86 -242 -7 -40 -23 -92 -36 -115 l-24 -43 195 0 194 0 24 48 c59 116 85
266 66 373 -29 161 -135 268 -312 313 -75 19 -244 27 -338 15z"/>
<path d="M10785 9188 c-7 -20 -275 -1552 -275 -1571 0 -15 18 -17 195 -17 147
0 197 3 200 13 7 17 275 1552 275 1572 0 13 -26 15 -195 15 -148 0 -197 -3
-200 -12z"/>
<path d="M11496 9173 c-8 -37 -276 -1563 -276 -1569 0 -2 90 -4 199 -4 l199 0
6 28 c3 15 37 209 76 431 38 222 70 405 72 406 2 2 43 -121 91 -273 49 -152
111 -348 139 -435 l51 -157 200 2 201 3 137 785 c76 432 138 791 139 798 0 9
-46 12 -200 12 -121 0 -200 -4 -200 -10 0 -22 -131 -757 -138 -774 -6 -14 -46
95 -143 382 l-134 402 -207 0 -206 0 -6 -27z"/>
<path d="M13045 9178 c-8 -36 -275 -1555 -275 -1567 0 -8 164 -11 555 -11 305
0 555 1 555 3 0 1 14 74 30 162 16 88 30 166 30 173 0 9 -78 12 -355 12 -195
0 -355 3 -355 8 0 4 9 59 20 122 11 63 20 118 20 122 0 4 134 9 297 10 l297 3
27 150 c16 83 28 160 29 173 l0 22 -290 0 c-225 0 -290 3 -290 13 0 6 10 72
22 145 l23 132 357 0 c197 0 358 1 358 3 0 1 14 77 30 167 17 90 30 168 30
172 0 4 -250 8 -555 8 l-555 0 -5 -22z"/>
<path d="M14416 9183 c-7 -23 -276 -1556 -276 -1571 0 -9 49 -12 198 -10 l197
3 36 200 c20 110 56 309 79 443 24 134 47 238 50 230 4 -7 39 -124 76 -261
l69 -247 149 2 149 3 159 250 c164 258 180 281 172 249 -2 -10 -36 -199 -74
-419 -39 -220 -73 -412 -76 -427 l-6 -28 201 0 c200 0 201 0 206 23 8 36 275
1557 275 1568 0 5 -84 9 -208 9 l-209 0 -253 -380 c-157 -235 -256 -376 -260
-368 -4 7 -58 178 -121 381 l-113 367 -207 0 c-189 0 -208 -2 -213 -17z"/>
<path d="M16506 9192 c-6 -10 -566 -1578 -566 -1586 0 -3 94 -6 210 -6 l209 0
51 163 c28 89 53 168 55 175 3 9 50 12 190 12 l186 0 -7 -175 -7 -175 213 0
213 0 -6 518 c-4 284 -7 644 -7 800 l0 282 -364 0 c-201 0 -367 -4 -370 -8z
m367 -444 c-2 -35 -7 -159 -13 -277 -5 -117 -11 -215 -13 -218 -2 -2 -67 -2
-144 -1 l-140 3 86 278 86 277 70 0 71 0 -3 -62z"/>
<path d="M2648 8634 c-78 -42 -76 -178 2 -219 24 -13 90 -15 418 -15 389 0
389 0 423 23 21 14 39 37 47 62 18 54 -1 111 -47 142 -34 23 -34 23 -425 23
-326 -1 -396 -3 -418 -16z"/>
<path d="M2605 7963 c-61 -16 -103 -83 -91 -147 7 -37 47 -79 89 -95 41 -16
591 -14 637 2 44 15 80 68 80 117 0 49 -36 102 -80 117 -35 12 -590 17 -635 6z"/>
<path d="M9751 7430 c-287 -37 -451 -147 -522 -351 -17 -50 -22 -88 -23 -174
-1 -105 0 -113 32 -177 57 -117 129 -165 370 -245 197 -65 248 -89 290 -138
54 -60 41 -145 -27 -188 -32 -19 -50 -22 -151 -22 -97 0 -121 3 -154 21 -55
29 -79 75 -72 142 l6 52 -199 0 -198 0 -7 -32 c-39 -190 1 -340 112 -425 126
-96 483 -129 742 -68 263 63 398 249 388 535 -3 93 -7 111 -33 158 -62 113
-147 165 -384 233 -244 69 -300 105 -308 196 -8 91 45 139 169 152 167 18 253
-30 251 -140 0 -28 -9 -65 -22 -89 l-21 -40 194 0 194 0 21 33 c11 19 28 65
37 103 51 219 -64 393 -298 449 -79 19 -289 27 -387 15z"/>
<path d="M14145 7430 c-287 -41 -465 -182 -549 -433 -15 -44 -62 -288 -116
-601 -50 -292 -1 -454 163 -537 131 -67 358 -84 567 -42 270 54 425 218 479
506 l8 47 -199 0 c-150 0 -199 -3 -202 -12 -47 -164 -124 -225 -269 -216 -113
7 -157 50 -157 150 0 77 96 599 120 656 26 60 86 117 139 132 20 5 63 10 97
10 110 0 164 -59 164 -182 0 -73 -28 -178 -56 -209 -17 -19 -14 -19 183 -19
l200 0 27 60 c73 163 85 337 32 457 -48 106 -146 182 -282 218 -71 19 -265 27
-349 15z"/>
<path d="M10570 7418 c0 -2 76 -223 168 -491 l168 -488 -53 -297 c-29 -163
-53 -303 -53 -309 0 -10 47 -13 200 -13 110 0 200 3 200 8 0 4 24 143 54 308
50 284 56 305 87 350 75 110 584 843 616 887 l35 47 -201 0 -201 0 -187 -280
c-164 -247 -189 -280 -212 -280 -25 0 -28 8 -111 278 l-86 277 -212 3 c-117 1
-212 1 -212 0z"/>
<path d="M12017 6632 c-76 -433 -138 -793 -138 -799 1 -10 47 -13 195 -13 107
0 197 3 199 8 3 4 38 199 78 434 41 235 75 425 78 423 2 -2 65 -197 140 -432
l137 -428 201 -3 201 -2 12 67 c6 38 69 397 139 798 l128 730 -195 3 c-107 1
-197 0 -200 -3 -6 -5 -141 -757 -142 -784 0 -37 -24 23 -110 284 -51 154 -111
331 -132 393 l-40 112 -207 0 -206 0 -138 -788z"/>
<path d="M2654 7274 c-41 -20 -64 -63 -64 -119 0 -40 5 -52 34 -81 l34 -34
241 0 c270 0 286 3 315 64 21 45 20 84 -4 124 -34 56 -63 62 -307 62 -174 0
-224 -4 -249 -16z"/>
<path d="M2568 6582 c-56 -34 -73 -112 -38 -170 33 -54 72 -64 232 -60 l140 3
34 37 c29 33 34 45 34 89 0 45 -4 55 -34 85 l-34 34 -153 0 c-127 0 -159 -3
-181 -18z"/>
</g>
</svg>
