<?xml version="1.0" standalone="no"?>
<!DOCTYPE svg PUBLIC "-//W3C//DTD SVG 20010904//EN"
 "http://www.w3.org/TR/2001/REC-SVG-20010904/DTD/svg10.dtd">
<svg version="1.0" xmlns="http://www.w3.org/2000/svg"
 width="500.000000pt" height="500.000000pt" viewBox="0 0 500.000000 500.000000"
 preserveAspectRatio="xMidYMid meet">

<g transform="translate(0.000000,500.000000) scale(0.100000,-0.100000)"
fill="#000000" stroke="none">
<path d="M1879 3761 c-180 -58 -321 -211 -364 -396 -14 -57 -16 -130 -13 -454
3 -374 4 -388 26 -451 60 -168 193 -295 361 -344 47 -14 131 -16 611 -16 596
0 601 0 705 52 175 88 294 282 295 481 l0 57 -159 0 c-174 0 -185 -3 -196 -58
-17 -81 -28 -103 -67 -136 -23 -20 -55 -38 -72 -41 -17 -3 -256 -5 -532 -3
l-501 3 -37 29 c-78 59 -76 47 -76 454 0 397 0 395 60 445 17 15 47 31 68 37
23 6 219 10 522 10 449 0 488 -2 525 -19 52 -23 93 -71 100 -119 3 -20 13 -52
20 -69 l15 -33 165 0 165 0 0 58 c-1 233 -150 436 -377 511 -60 20 -81 21
-625 20 -513 0 -568 -2 -619 -18z"/>
<path d="M2259 3264 l-24 -26 0 -298 0 -298 24 -26 c43 -46 67 -38 322 110
129 75 245 147 258 160 30 29 32 77 4 105 -11 11 -127 83 -259 160 -259 151
-282 159 -325 113z"/>
<path d="M3521 1670 c23 -63 42 -123 43 -132 0 -15 26 -28 26 -14 0 18 -84
234 -96 246 -8 8 3 -35 27 -100z"/>
<path d="M1968 1645 c-2 -95 0 -125 10 -125 9 0 12 32 12 125 0 72 -4 125 -9
125 -6 0 -11 -56 -13 -125z"/>
<path d="M3181 1708 c0 -44 3 -57 9 -43 12 28 12 93 0 100 -6 4 -10 -17 -9
-57z"/>
<path d="M2372 1700 c0 -52 1 -59 8 -36 5 16 5 45 1 65 -8 32 -9 29 -9 -29z"/>
<path d="M1757 1713 c3 -14 1 -23 -6 -23 -6 0 -11 -4 -11 -10 0 -5 9 -10 20
-10 24 0 26 18 5 46 -14 18 -14 18 -8 -3z"/>
<path d="M1748 1584 c-14 -31 -56 -54 -98 -54 -20 0 -29 -4 -24 -11 4 -7 26
-9 57 -6 39 3 56 11 74 31 24 28 31 66 13 66 -6 0 -16 -12 -22 -26z"/>
<path d="M2372 1570 c0 -14 2 -19 5 -12 2 6 2 18 0 25 -3 6 -5 1 -5 -13z"/>
</g>
</svg>
